<svg width="20" height="20" viewBox="0 0 20 20" fill="none" xmlns="http://www.w3.org/2000/svg">
<mask id="mask0_833_6304" style="mask-type:alpha" maskUnits="userSpaceOnUse" x="0" y="0" width="20" height="20">
<rect width="20" height="20" fill="#D9D9D9"/>
</mask>
<g mask="url(#mask0_833_6304)">
<path d="M10.0003 18.3333C9.54199 18.3333 9.14963 18.1701 8.82324 17.8437C8.49685 17.5173 8.33366 17.125 8.33366 16.6666V9.99996C8.33366 9.54163 8.49685 9.14927 8.82324 8.82288C9.14963 8.49649 9.54199 8.33329 10.0003 8.33329H16.667C17.1253 8.33329 17.5177 8.49649 17.8441 8.82288C18.1705 9.14927 18.3337 9.54163 18.3337 9.99996V16.6666C18.3337 17.125 18.1705 17.5173 17.8441 17.8437C17.5177 18.1701 17.1253 18.3333 16.667 18.3333H10.0003ZM10.0003 16.6666H16.667V9.99996H10.0003V16.6666ZM5.00033 15V6.66663C5.00033 6.20829 5.16352 5.81593 5.48991 5.48954C5.8163 5.16315 6.20866 4.99996 6.66699 4.99996H15.0003V6.66663H6.66699V15H5.00033ZM1.66699 11.6666V3.33329C1.66699 2.87496 1.83019 2.4826 2.15658 2.15621C2.48296 1.82982 2.87533 1.66663 3.33366 1.66663H11.667V3.33329H3.33366V11.6666H1.66699Z" fill="#4B5563"/>
</g>
</svg>
