<svg width="6" height="16" viewBox="0 0 6 16" fill="none" xmlns="http://www.w3.org/2000/svg">
<path d="M2.671 3.11525C2.24033 3.11525 1.87342 2.963 1.57025 2.6585C1.26692 2.354 1.11525 1.98642 1.11525 1.55575C1.11525 1.12492 1.2675 0.757917 1.572 0.45475C1.8765 0.151583 2.24417 0 2.675 0C3.10567 0 3.47258 0.152249 3.77575 0.456749C4.07908 0.761249 4.23075 1.12883 4.23075 1.5595C4.23075 1.99033 4.0785 2.35733 3.774 2.6605C3.4695 2.96367 3.10183 3.11525 2.671 3.11525ZM1 14.1923V10.2882H0.903751C0.647751 10.2882 0.433084 10.2017 0.25975 10.0285C0.0865837 9.85517 0 9.6405 0 9.3845V5.82675C0 5.36675 0.163833 4.97292 0.4915 4.64525C0.819 4.31758 1.21283 4.15375 1.673 4.15375H3.673C4.13317 4.15375 4.527 4.31758 4.8545 4.64525C5.18217 4.97292 5.346 5.36675 5.346 5.82675V9.3845C5.346 9.6405 5.25942 9.85517 5.08625 10.0285C4.91292 10.2017 4.69825 10.2882 4.44225 10.2882H4.346V14.1923C4.346 14.4483 4.25942 14.6629 4.08625 14.8362C3.91292 15.0094 3.69825 15.096 3.44225 15.096H1.90375C1.64775 15.096 1.43308 15.0094 1.25975 14.8362C1.08658 14.6629 1 14.4483 1 14.1923Z" fill="#D1D5DB"/>
</svg>
