<svg width="16" height="17" viewBox="0 0 16 17" fill="none" xmlns="http://www.w3.org/2000/svg">
<mask id="mask0_833_6594" style="mask-type:alpha" maskUnits="userSpaceOnUse" x="0" y="0" width="16" height="17">
<rect y="0.0959473" width="16" height="16" fill="#D9D9D9"/>
</mask>
<g mask="url(#mask0_833_6594)">
<path d="M6.36651 10.4396L12.1255 4.68061C12.2246 4.58139 12.3406 4.53072 12.4735 4.52861C12.6064 4.5265 12.7246 4.57717 12.828 4.68061C12.9315 4.78406 12.9832 4.90283 12.9832 5.03695C12.9832 5.17117 12.9315 5.29 12.828 5.39345L6.78834 11.4434C6.66779 11.5639 6.52717 11.6241 6.36651 11.6241C6.20584 11.6241 6.06523 11.5639 5.94467 11.4434L3.16134 8.66011C3.06223 8.56089 3.01334 8.44311 3.01467 8.30678C3.0159 8.17056 3.06823 8.05072 3.17167 7.94728C3.27512 7.84383 3.3939 7.79211 3.52801 7.79211C3.66223 7.79211 3.78106 7.84383 3.88451 7.94728L6.36651 10.4396Z" fill="#1F2937"/>
</g>
</svg>
