<svg width="25" height="24" viewBox="0 0 25 24" fill="none" xmlns="http://www.w3.org/2000/svg">
<mask id="mask0_2155_6209" style="mask-type:alpha" maskUnits="userSpaceOnUse" x="0" y="0" width="25" height="24">
<rect x="0.560547" width="24" height="24" fill="#D9D9D9"/>
</mask>
<g mask="url(#mask0_2155_6209)">
<path d="M7.8683 20.5002C7.37113 20.5002 6.94555 20.3232 6.59155 19.9692C6.23755 19.6152 6.06055 19.1896 6.06055 18.6925V6.00022H5.81055C5.59805 6.00022 5.41996 5.92831 5.2763 5.78447C5.13246 5.64064 5.06055 5.46247 5.06055 5.24997C5.06055 5.03731 5.13246 4.85922 5.2763 4.71572C5.41996 4.57206 5.59805 4.50022 5.81055 4.50022H9.56055C9.56055 4.25539 9.6468 4.04672 9.8193 3.87422C9.99163 3.70189 10.2002 3.61572 10.445 3.61572H14.676C14.9209 3.61572 15.1295 3.70189 15.3018 3.87422C15.4743 4.04672 15.5605 4.25539 15.5605 4.50022H19.3105C19.523 4.50022 19.7011 4.57214 19.8448 4.71597C19.9886 4.85981 20.0605 5.03797 20.0605 5.25047C20.0605 5.46314 19.9886 5.64122 19.8448 5.78472C19.7011 5.92839 19.523 6.00022 19.3105 6.00022H19.0605V18.6925C19.0605 19.1896 18.8835 19.6152 18.5295 19.9692C18.1755 20.3232 17.75 20.5002 17.2528 20.5002H7.8683ZM17.5605 6.00022H7.56055V18.6925C7.56055 18.7823 7.58938 18.8561 7.64705 18.9137C7.70471 18.9714 7.77846 19.0002 7.8683 19.0002H17.2528C17.3426 19.0002 17.4164 18.9714 17.474 18.9137C17.5317 18.8561 17.5605 18.7823 17.5605 18.6925V6.00022ZM10.7148 17.0002C10.9273 17.0002 11.1054 16.9284 11.249 16.7847C11.3925 16.6409 11.4643 16.4627 11.4643 16.2502V8.75022C11.4643 8.53772 11.3924 8.35956 11.2485 8.21572C11.1049 8.07206 10.9267 8.00022 10.714 8.00022C10.5015 8.00022 10.3235 8.07206 10.1798 8.21572C10.0363 8.35956 9.96455 8.53772 9.96455 8.75022V16.2502C9.96455 16.4627 10.0364 16.6409 10.18 16.7847C10.3239 16.9284 10.5021 17.0002 10.7148 17.0002ZM14.407 17.0002C14.6195 17.0002 14.7976 16.9284 14.9413 16.7847C15.0848 16.6409 15.1565 16.4627 15.1565 16.2502V8.75022C15.1565 8.53772 15.0847 8.35956 14.941 8.21572C14.7972 8.07206 14.619 8.00022 14.4063 8.00022C14.1938 8.00022 14.0157 8.07206 13.872 8.21572C13.7285 8.35956 13.6568 8.53772 13.6568 8.75022V16.2502C13.6568 16.4627 13.7287 16.6409 13.8725 16.7847C14.0162 16.9284 14.1944 17.0002 14.407 17.0002Z" fill="#6B7280"/>
</g>
</svg>
