<svg width="25" height="24" viewBox="0 0 25 24" fill="none" xmlns="http://www.w3.org/2000/svg">
<mask id="mask0_2155_6206" style="mask-type:alpha" maskUnits="userSpaceOnUse" x="0" y="0" width="25" height="24">
<rect x="0.560547" width="24" height="24" fill="#D9D9D9"/>
</mask>
<g mask="url(#mask0_2155_6206)">
<path d="M5.56055 19H6.82205L17.0585 8.7635L15.797 7.502L5.56055 17.7385V19ZM4.96455 20.5C4.70838 20.5 4.49371 20.4133 4.32055 20.24C4.14721 20.0668 4.06055 19.8522 4.06055 19.596V17.8635C4.06055 17.6197 4.10738 17.3873 4.20105 17.1663C4.29455 16.9453 4.42338 16.7527 4.58755 16.5885L17.251 3.93075C17.4022 3.79342 17.5691 3.68733 17.7518 3.6125C17.9346 3.5375 18.1263 3.5 18.3268 3.5C18.5273 3.5 18.7215 3.53558 18.9093 3.60675C19.0973 3.67792 19.2637 3.79108 19.4085 3.94625L20.6298 5.18275C20.785 5.32758 20.8955 5.49425 20.9615 5.68275C21.0275 5.87125 21.0605 6.05975 21.0605 6.24825C21.0605 6.44942 21.0262 6.64133 20.9575 6.824C20.8889 7.00683 20.7796 7.17383 20.6298 7.325L7.97205 19.973C7.80788 20.1372 7.6153 20.266 7.3943 20.3595C7.1733 20.4532 6.94088 20.5 6.69705 20.5H4.96455ZM16.4168 8.14375L15.797 7.502L17.0585 8.7635L16.4168 8.14375Z" fill="#6B7280"/>
</g>
</svg>
