<svg width="16" height="16" viewBox="0 0 16 16" fill="none" xmlns="http://www.w3.org/2000/svg">
<mask id="mask0_833_6350" style="mask-type:alpha" maskUnits="userSpaceOnUse" x="0" y="0" width="16" height="16">
<rect width="16" height="16" fill="#D9D9D9"/>
</mask>
<g mask="url(#mask0_833_6350)">
<path d="M7.99399 13.1396C7.85121 13.1396 7.70783 13.114 7.56383 13.0628C7.41983 13.0115 7.2931 12.9311 7.18366 12.8218L6.22599 11.9513C5.04399 10.8735 3.98866 9.81475 3.05999 8.77498C2.13133 7.7352 1.66699 6.62131 1.66699 5.43331C1.66699 4.4872 1.98599 3.69509 2.62399 3.05698C3.2621 2.41898 4.05421 2.09998 5.00033 2.09998C5.53788 2.09998 6.06888 2.22392 6.59333 2.47181C7.11766 2.7197 7.58666 3.12225 8.00033 3.67948C8.41399 3.12225 8.88299 2.7197 9.40733 2.47181C9.93177 2.22392 10.4628 2.09998 11.0003 2.09998C11.9464 2.09998 12.7385 2.41898 13.3767 3.05698C14.0147 3.69509 14.3337 4.4872 14.3337 5.43331C14.3337 6.6342 13.8614 7.76048 12.917 8.81214C11.9725 9.86381 10.9195 10.9136 9.75799 11.9615L8.81049 12.8218C8.70116 12.9311 8.57344 13.0115 8.42733 13.0628C8.2811 13.114 8.13666 13.1396 7.99399 13.1396ZM7.52083 4.69231C7.16016 4.14275 6.78044 3.73997 6.38166 3.48398C5.98299 3.22798 5.52255 3.09998 5.00033 3.09998C4.33366 3.09998 3.7781 3.3222 3.33366 3.76664C2.88921 4.21109 2.66699 4.76664 2.66699 5.43331C2.66699 5.96831 2.83944 6.5277 3.18433 7.11148C3.52921 7.69525 3.9621 8.27559 4.48299 8.85247C5.00388 9.42947 5.56821 9.99314 6.17599 10.5435C6.78366 11.0939 7.34688 11.6055 7.86566 12.0781C7.9041 12.1124 7.94899 12.1295 8.00033 12.1295C8.05166 12.1295 8.09655 12.1124 8.13499 12.0781C8.65377 11.6055 9.21699 11.0939 9.82466 10.5435C10.4324 9.99314 10.9968 9.42947 11.5177 8.85247C12.0385 8.27559 12.4714 7.69525 12.8163 7.11148C13.1612 6.5277 13.3337 5.96831 13.3337 5.43331C13.3337 4.76664 13.1114 4.21109 12.667 3.76664C12.2225 3.3222 11.667 3.09998 11.0003 3.09998C10.4781 3.09998 10.0177 3.22798 9.61899 3.48398C9.22021 3.73997 8.84049 4.14275 8.47983 4.69231C8.42338 4.77775 8.35244 4.84186 8.26699 4.88464C8.18155 4.92731 8.09266 4.94864 8.00033 4.94864C7.90799 4.94864 7.8191 4.92731 7.73366 4.88464C7.64821 4.84186 7.57727 4.77775 7.52083 4.69231Z" fill="#6B7280"/>
</g>
</svg>
