<svg width="25" height="24" viewBox="0 0 25 24" fill="none" xmlns="http://www.w3.org/2000/svg">
<g clip-path="url(#clip0_833_6456)">
<path d="M14.9 6L14.66 4.8C14.57 4.34 14.16 4 13.68 4H6.5C5.95 4 5.5 4.45 5.5 5V20C5.5 20.55 5.95 21 6.5 21C7.05 21 7.5 20.55 7.5 20V14H13.1L13.34 15.2C13.43 15.67 13.84 16 14.32 16H19.5C20.05 16 20.5 15.55 20.5 15V7C20.5 6.45 20.05 6 19.5 6H14.9Z" fill="#6B7280"/>
</g>
<defs>
<clipPath id="clip0_833_6456">
<rect width="24" height="24" fill="white" transform="translate(0.5)"/>
</clipPath>
</defs>
</svg>
