<svg width="53" height="11" viewBox="0 0 53 11" fill="none" xmlns="http://www.w3.org/2000/svg">
<path d="M5.34553 8.25754C5.47264 8.18082 5.6318 8.18082 5.75891 8.25754L7.99325 9.6061C8.29618 9.78893 8.66987 9.51734 8.58949 9.17277L7.99655 6.63107C7.96281 6.48647 8.01195 6.33508 8.12418 6.23786L10.0988 4.52723C10.3663 4.29554 10.2233 3.85624 9.87073 3.82633L7.27151 3.60581C7.12368 3.59327 6.99494 3.49994 6.93704 3.36334L5.92051 0.964895C5.78267 0.639684 5.32177 0.639684 5.18393 0.964895L4.1674 3.36334C4.1095 3.49994 3.98076 3.59327 3.83293 3.60581L1.23371 3.82633C0.881144 3.85624 0.738181 4.29555 1.00562 4.52723L2.98027 6.23786C3.09249 6.33508 3.14163 6.48647 3.1079 6.63107L2.51495 9.17277C2.43457 9.51734 2.80826 9.78893 3.11119 9.6061L5.34553 8.25754Z" fill="#374151"/>
<path d="M15.8719 8.25754C15.999 8.18082 16.1582 8.18082 16.2853 8.25754L18.5196 9.6061C18.8225 9.78893 19.1962 9.51734 19.1159 9.17277L18.5229 6.63107C18.4892 6.48647 18.5383 6.33508 18.6505 6.23786L20.6252 4.52723C20.8926 4.29554 20.7497 3.85624 20.3971 3.82633L17.7979 3.60581C17.65 3.59327 17.5213 3.49994 17.4634 3.36334L16.4469 0.964895C16.309 0.639684 15.8481 0.639684 15.7103 0.964895L14.6938 3.36334C14.6359 3.49994 14.5071 3.59327 14.3593 3.60581L11.7601 3.82633C11.4075 3.85624 11.2645 4.29555 11.532 4.52723L13.5066 6.23786C13.6189 6.33508 13.668 6.48647 13.6343 6.63107L13.0413 9.17277C12.9609 9.51734 13.3346 9.78893 13.6376 9.6061L15.8719 8.25754Z" fill="#374151"/>
<path d="M26.3983 8.25754C26.5254 8.18082 26.6845 8.18082 26.8116 8.25754L29.046 9.6061C29.3489 9.78893 29.7226 9.51734 29.6422 9.17277L29.0493 6.63107C29.0155 6.48647 29.0647 6.33508 29.1769 6.23786L31.1516 4.52723C31.419 4.29554 31.276 3.85624 30.9235 3.82633L28.3242 3.60581C28.1764 3.59327 28.0477 3.49994 27.9898 3.36334L26.9732 0.964895C26.8354 0.639684 26.3745 0.639684 26.2367 0.964895L25.2201 3.36334C25.1622 3.49994 25.0335 3.59327 24.8857 3.60581L22.2864 3.82633C21.9339 3.85624 21.7909 4.29555 22.0584 4.52723L24.033 6.23786C24.1452 6.33508 24.1944 6.48647 24.1606 6.63107L23.5677 9.17277C23.4873 9.51734 23.861 9.78893 24.1639 9.6061L26.3983 8.25754Z" fill="#374151"/>
<path d="M36.9246 8.25754C37.0517 8.18082 37.2109 8.18082 37.338 8.25754L39.5724 9.6061C39.8753 9.78893 40.249 9.51734 40.1686 9.17277L39.5756 6.63107C39.5419 6.48647 39.5911 6.33508 39.7033 6.23786L41.6779 4.52723C41.9454 4.29554 41.8024 3.85624 41.4498 3.82633L38.8506 3.60581C38.7028 3.59327 38.574 3.49994 38.5161 3.36334L37.4996 0.964895C37.3618 0.639684 36.9009 0.639684 36.763 0.964895L35.7465 3.36334C35.6886 3.49994 35.5599 3.59327 35.412 3.60581L32.8128 3.82633C32.4602 3.85624 32.3173 4.29555 32.5847 4.52723L34.5594 6.23786C34.6716 6.33508 34.7207 6.48647 34.687 6.63107L34.0941 9.17277C34.0137 9.51734 34.3874 9.78893 34.6903 9.6061L36.9246 8.25754Z" fill="#374151"/>
<path d="M47.451 8.25754C47.5781 8.18082 47.7373 8.18082 47.8644 8.25754L50.0987 9.6061C50.4016 9.78893 50.7753 9.51734 50.695 9.17277L50.102 6.63107C50.0683 6.48647 50.1174 6.33508 50.2296 6.23786L52.2043 4.52723C52.4717 4.29554 52.3288 3.85624 51.9762 3.82633L49.377 3.60581C49.2292 3.59327 49.1004 3.49994 49.0425 3.36334L48.026 0.964895C47.8881 0.639684 47.4272 0.639684 47.2894 0.964895L46.2729 3.36334C46.215 3.49994 46.0862 3.59327 45.9384 3.60581L43.3392 3.82633C42.9866 3.85624 42.8436 4.29555 43.1111 4.52723L45.0857 6.23786C45.198 6.33508 45.2471 6.48647 45.2134 6.63107L44.6204 9.17277C44.54 9.51734 44.9137 9.78893 45.2167 9.6061L47.451 8.25754Z" fill="#374151"/>
</svg>
