<svg width="18" height="18" viewBox="0 0 18 18" fill="none" xmlns="http://www.w3.org/2000/svg">
<mask id="mask0_833_6335" style="mask-type:alpha" maskUnits="userSpaceOnUse" x="0" y="0" width="18" height="18">
<rect width="18" height="18" fill="#D9D9D9"/>
</mask>
<g mask="url(#mask0_833_6335)">
<path d="M9.00118 8.89894C9.3743 8.89894 9.6933 8.76606 9.95818 8.50031C10.2232 8.23456 10.3557 7.91512 10.3557 7.542C10.3557 7.16887 10.2228 6.84981 9.95705 6.58481C9.6913 6.31994 9.3718 6.1875 8.99855 6.1875C8.62543 6.1875 8.30643 6.32038 8.04155 6.58613C7.77655 6.85188 7.64405 7.17138 7.64405 7.54463C7.64405 7.91775 7.77693 8.23675 8.04268 8.50163C8.30843 8.7665 8.62793 8.89894 9.00118 8.89894ZM8.99987 14.6351C10.4671 13.3216 11.5899 12.0618 12.3683 10.8555C13.1467 9.64925 13.5359 8.59275 13.5359 7.686C13.5359 6.31875 13.1015 5.19475 12.2327 4.314C11.364 3.43325 10.2864 2.99287 8.99987 2.99287C7.71337 2.99287 6.63574 3.43325 5.76699 4.314C4.89824 5.19475 4.46387 6.31875 4.46387 7.686C4.46387 8.59275 4.85305 9.64925 5.63143 10.8555C6.4098 12.0618 7.53262 13.3216 8.99987 14.6351ZM8.99987 16.1321C7.11237 14.4966 5.69699 12.9746 4.75374 11.5659C3.81049 10.1572 3.33887 8.86387 3.33887 7.686C3.33887 5.95525 3.89868 4.55406 5.0183 3.48244C6.13805 2.41081 7.46524 1.875 8.99987 1.875C10.5345 1.875 11.8617 2.41081 12.9814 3.48244C14.1011 4.55406 14.6609 5.95525 14.6609 7.686C14.6609 8.86387 14.1892 10.1572 13.246 11.5659C12.3027 12.9746 10.8874 14.4966 8.99987 16.1321Z" fill="#D1D5DB"/>
</g>
</svg>
