<svg width="16" height="16" viewBox="0 0 16 16" fill="none" xmlns="http://www.w3.org/2000/svg">
<mask id="mask0_833_6345" style="mask-type:alpha" maskUnits="userSpaceOnUse" x="0" y="0" width="16" height="16">
<rect width="16" height="16" fill="#D9D9D9"/>
</mask>
<g mask="url(#mask0_833_6345)">
<path d="M12.0012 14.5C11.492 14.5 11.0591 14.3218 10.7023 13.9653C10.3454 13.6088 10.167 13.1759 10.167 12.6667C10.167 12.5834 10.1736 12.4973 10.1868 12.4082C10.2002 12.3189 10.22 12.2367 10.2465 12.1615L5.31566 9.27433C5.13966 9.44956 4.93927 9.5865 4.71449 9.68517C4.48971 9.78394 4.25166 9.83333 4.00033 9.83333C3.4911 9.83333 3.05821 9.65517 2.70166 9.29883C2.34521 8.9425 2.16699 8.50983 2.16699 8.00083C2.16699 7.49172 2.34521 7.05878 2.70166 6.702C3.05821 6.34511 3.4911 6.16667 4.00033 6.16667C4.25166 6.16667 4.48971 6.21606 4.71449 6.31483C4.93927 6.4135 5.13966 6.55044 5.31566 6.72567L10.2465 3.8385C10.22 3.76328 10.2002 3.68106 10.1868 3.59183C10.1736 3.50272 10.167 3.41656 10.167 3.33333C10.167 2.82411 10.3452 2.39122 10.7015 2.03467C11.0578 1.67822 11.4905 1.5 11.9995 1.5C12.5086 1.5 12.9415 1.67817 13.2983 2.0345C13.6552 2.39083 13.8337 2.8235 13.8337 3.3325C13.8337 3.84161 13.6554 4.27456 13.299 4.63133C12.9424 4.98822 12.5095 5.16667 12.0003 5.16667C11.749 5.16667 11.5109 5.11728 11.2862 5.0185C11.0614 4.91983 10.861 4.78289 10.685 4.60767L5.75416 7.49483C5.7806 7.57006 5.80049 7.65211 5.81383 7.741C5.82705 7.82989 5.83366 7.91578 5.83366 7.99867C5.83366 8.08156 5.82705 8.16789 5.81383 8.25767C5.80049 8.34744 5.7806 8.42994 5.75416 8.50517L10.685 11.3923C10.861 11.2171 11.0614 11.0802 11.2862 10.9815C11.5109 10.8827 11.749 10.8333 12.0003 10.8333C12.5095 10.8333 12.9424 11.0115 13.299 11.3678C13.6554 11.7242 13.8337 12.1568 13.8337 12.6658C13.8337 13.1749 13.6555 13.6079 13.2992 13.9647C12.9428 14.3216 12.5102 14.5 12.0012 14.5ZM12.0003 4.16667C12.232 4.16667 12.4288 4.08567 12.5907 3.92367C12.7527 3.76178 12.8337 3.565 12.8337 3.33333C12.8337 3.10167 12.7527 2.90489 12.5907 2.743C12.4288 2.581 12.232 2.5 12.0003 2.5C11.7687 2.5 11.5719 2.581 11.41 2.743C11.248 2.90489 11.167 3.10167 11.167 3.33333C11.167 3.565 11.248 3.76178 11.41 3.92367C11.5719 4.08567 11.7687 4.16667 12.0003 4.16667ZM4.00033 8.83333C4.23199 8.83333 4.42877 8.75233 4.59066 8.59033C4.75266 8.42845 4.83366 8.23167 4.83366 8C4.83366 7.76833 4.75266 7.57156 4.59066 7.40967C4.42877 7.24767 4.23199 7.16667 4.00033 7.16667C3.76866 7.16667 3.57188 7.24767 3.40999 7.40967C3.24799 7.57156 3.16699 7.76833 3.16699 8C3.16699 8.23167 3.24799 8.42845 3.40999 8.59033C3.57188 8.75233 3.76866 8.83333 4.00033 8.83333ZM12.0003 13.5C12.232 13.5 12.4288 13.419 12.5907 13.257C12.7527 13.0951 12.8337 12.8983 12.8337 12.6667C12.8337 12.435 12.7527 12.2382 12.5907 12.0763C12.4288 11.9143 12.232 11.8333 12.0003 11.8333C11.7687 11.8333 11.5719 11.9143 11.41 12.0763C11.248 12.2382 11.167 12.435 11.167 12.6667C11.167 12.8983 11.248 13.0951 11.41 13.257C11.5719 13.419 11.7687 13.5 12.0003 13.5Z" fill="#6B7280"/>
</g>
</svg>
