<svg width="17" height="16" viewBox="0 0 17 16" fill="none" xmlns="http://www.w3.org/2000/svg">
<path d="M8.48843 0.488154C8.60581 0.250316 8.94497 0.250316 9.06235 0.488155L11.1427 4.70336C11.2417 4.90406 11.4332 5.04317 11.6547 5.07535L16.3064 5.75129C16.5689 5.78943 16.6737 6.11198 16.4838 6.29711L13.1177 9.5782C12.9575 9.73442 12.8843 9.9595 12.9222 10.1801L13.7168 14.8131C13.7616 15.0745 13.4872 15.2738 13.2525 15.1504L9.09182 12.963C8.89372 12.8589 8.65706 12.8589 8.45896 12.963L4.2983 15.1504C4.06354 15.2738 3.78916 15.0745 3.83399 14.8131L4.62861 10.1801C4.66644 9.9595 4.59331 9.73442 4.43304 9.5782L1.067 6.29711C0.877074 6.11198 0.981876 5.78943 1.24435 5.75129L5.89611 5.07535C6.11759 5.04317 6.30905 4.90406 6.4081 4.70336L8.48843 0.488154Z" fill="#A1A1AA" stroke="#A1A1AA" stroke-width="0.36"/>
</svg>
