<svg width="12" height="11" viewBox="0 0 12 11" fill="none" xmlns="http://www.w3.org/2000/svg">
<path d="M6.26396 0.799498L7.86704 3.13858C7.95546 3.2676 8.08565 3.36219 8.23568 3.40641L10.9557 4.20821C11.1713 4.27179 11.2559 4.5321 11.1188 4.71029L9.38957 6.95773C9.29419 7.08169 9.24446 7.23474 9.24876 7.39109L9.32672 10.2257C9.3329 10.4505 9.11147 10.6113 8.89963 10.536L6.22783 9.58592C6.08046 9.53352 5.91954 9.53352 5.77217 9.58592L3.10037 10.536C2.88853 10.6113 2.6671 10.4505 2.67328 10.2257L2.75124 7.39109C2.75554 7.23474 2.70581 7.08169 2.61043 6.95773L0.88121 4.71029C0.744102 4.5321 0.828682 4.27179 1.04435 4.20821L3.76432 3.40641C3.91435 3.36219 4.04454 3.2676 4.13296 3.13858L5.73604 0.799498C5.86315 0.614035 6.13685 0.614035 6.26396 0.799498Z" fill="#374151" stroke="#374151" stroke-width="0.36"/>
</svg>
