<svg width="24" height="25" viewBox="0 0 24 25" fill="none" xmlns="http://www.w3.org/2000/svg">
<path d="M3 6.59595H5M5 6.59595H21M5 6.59595V20.5959C5 21.1264 5.21071 21.6351 5.58579 22.0102C5.96086 22.3852 6.46957 22.5959 7 22.5959H17C17.5304 22.5959 18.0391 22.3852 18.4142 22.0102C18.7893 21.6351 19 21.1264 19 20.5959V6.59595H5ZM8 6.59595V4.59595C8 4.06551 8.21071 3.55681 8.58579 3.18173C8.96086 2.80666 9.46957 2.59595 10 2.59595H14C14.5304 2.59595 15.0391 2.80666 15.4142 3.18173C15.7893 3.55681 16 4.06551 16 4.59595V6.59595M10 11.5959V17.5959M14 11.5959V17.5959" stroke="#D1D5DB" stroke-width="2" stroke-linecap="round" stroke-linejoin="round"/>
</svg>
